:SAMPLES-PER-SECOND 30
:FULLY-SPECIFIED
:DEGREES
214
root  -1.9969 41.0013 0.19348 179.216 -76.476 -176.641
RightUpLeg  -2.79704 0.619747 -0.257581
RightLeg  -5.23245 -8.60709 1.60256
RightFoot  5.87161 -0.40456 2.93786
RightToes  -3.1126e-008 1.75238e-005 3.56266e-009
Spine  11.6246 0.297969 -4.01071
Spine1  -14.0635 -0.165253 4.10461
HEad  -6.34349 -8.29404 4.10889
LeftShoulder1  0.891312 -0.168168 -17.6241
LeftArm  -30.146 -22.5103 -45.5643
LeftForeArm  47.8243 -72.3579 -31.1212
LeftHand  -0.580211 -4.11463 7.35957
RightShoulder  0.92811 0.336132 17.6733
RightArm  -26.935 7.44578 33.8037
RightForeArm  96.4632 79.0819 105.714
RightHand  -0.118795 8.22699 -1.39292
LeftUpLeg  0.352271 2.08449 3.61596
LeftLeg  -3.68498 30.1473 -2.19242
LeftFoot  1.96698 0.451122 -3.96919
LeftToes  4.78049e-008 1.46235e-008 1.34219e-009
215
root  -2.02231 41.0064 0.149057 178.798 -77.3487 -176.059
RightUpLeg  -2.67511 0.653921 -0.169435
RightLeg  -5.54956 -9.53775 1.75785
RightFoot  5.90076 -0.399377 2.90001
RightToes  -3.1126e-008 1.75238e-005 3.56266e-009
Spine  11.3726 0.00688855 -4.49055
Spine1  -14.3216 -0.501257 4.86514
HEad  -6.04867 -8.02572 3.6391
LeftShoulder1  0.816537 0.056707 -16.9802
LeftArm  -29.8261 -26.535 -46.2107
LeftForeArm  47.1687 -71.9441 -30.2373
LeftHand  -0.608543 -4.12739 7.697
RightShoulder  1.00664 0.607126 18.0183
RightArm  -25.0338 5.77155 34.6577
RightForeArm  97.5326 79.0479 106.542
RightHand  0.000538641 8.64093 -0.380189
LeftUpLeg  0.146293 2.13834 3.79428
LeftLeg  -3.71641 29.1836 -2.19097
LeftFoot  1.99513 0.467053 -4.09819
LeftToes  4.78049e-008 1.46235e-008 1.34219e-009
216
root  -2.06233 41.0134 0.105218 178.713 -78.0325 -175.823
RightUpLeg  -2.50969 0.633245 -0.156345
RightLeg  -5.92789 -10.1914 1.90656
RightFoot  5.93431 -0.383973 2.7944
RightToes  -3.1126e-008 1.75238e-005 3.56266e-009
Spine  11.4138 -0.173546 -4.87315
Spine1  -15.1037 -0.689799 5.38232
HEad  -5.44939 -8.16821 3.94334
LeftShoulder1  0.736244 0.291795 -16.1582
LeftArm  -29.6551 -30.1844 -46.8678
LeftForeArm  46.6049 -71.7375 -29.8659
LeftHand  -0.601391 -3.88846 7.78671
RightShoulder  1.03642 0.719745 18.0672
RightArm  -22.6401 2.87313 35.7604
RightForeArm  100.407 78.8927 109.254
RightHand  -0.0863327 8.7336 -1.09662
LeftUpLeg  0.166029 2.0624 3.83152
LeftLeg  -4.17442 28.6042 -2.32484
LeftFoot  2.16729 0.484681 -4.20314
LeftToes  4.78049e-008 1.46235e-008 1.34219e-009
217
root  -2.10193 41.0209 0.0932756 179.051 -78.517 -175.892
RightUpLeg  -2.60027 0.534702 -0.262544
RightLeg  -6.1096 -10.5444 2.03431
RightFoot  5.93377 -0.383112 2.84932
RightToes  -3.1126e-008 1.75238e-005 3.56266e-009
Spine  11.3404 -0.348607 -5.11993
Spine1  -15.741 -0.854998 5.77521
HEad  -5.13476 -8.21558 3.92862
LeftShoulder1  0.687137 0.459162 -15.7588
LeftArm  -30.2768 -33.7002 -47.0484
LeftForeArm  46.8231 -71.8316 -30.0414
LeftHand  -0.56651 -4.26259 7.0935
RightShoulder  1.10144 0.927904 18.4068
RightArm  -20.514 0.166943 36.5319
RightForeArm  102.9 78.8217 110.878
RightHand  -0.0980885 8.76579 -1.19036
LeftUpLeg  -0.0145673 1.91189 3.75792
LeftLeg  -4.4446 28.2846 -2.38244
LeftFoot  2.27898 0.497316 -4.27994
LeftToes  4.78049e-008 1.46235e-008 1.34219e-009
218
root  -2.15576 41.0245 0.080135 179.372 -79.0024 -176.06
RightUpLeg  -2.5838 0.397415 -0.364902
RightLeg  -6.22621 -10.9194 2.1458
RightFoot  5.85719 -0.378066 2.8083
RightToes  -3.1126e-008 1.75238e-005 3.56266e-009
Spine  11.3237 -0.462814 -5.38438
Spine1  -16.3526 -0.960558 6.14754
HEad  -4.56827 -8.04437 3.63056
LeftShoulder1  0.632666 0.638011 -15.232
LeftArm  -30.979 -36.9783 -47.473
LeftForeArm  47.6454 -71.9748 -30.2133
LeftHand  -0.613315 -4.93419 7.19658
RightShoulder  1.10374 0.90547 18.5982
RightArm  -18.1361 -3.09565 37.2078
RightForeArm  104.787 78.6896 112.677
RightHand  -0.0772172 8.41255 -1.03047
LeftUpLeg  -0.0345626 1.76843 3.66403
LeftLeg  -4.73643 27.9687 -2.44931
LeftFoot  2.33158 0.497258 -4.26528
LeftToes  4.78049e-008 1.46235e-008 1.34219e-009
219
root  -2.21292 41.0261 0.0606417 179.314 -79.4839 -175.927
RightUpLeg  -2.45858 0.342846 -0.388554
RightLeg  -6.34809 -11.312 2.23163
RightFoot  5.7463 -0.372881 2.7434
RightToes  -3.1126e-008 1.75238e-005 3.56266e-009
Spine  11.6995 -0.482167 -5.7812
Spine1  -17.4058 -0.97716 6.81203
HEad  -4.30178 -7.37994 3.38038
LeftShoulder1  0.65675 0.529908 -15.2378
LeftArm  -32.0244 -39.4576 -46.8407
LeftForeArm  48.3 -72.4779 -31.3244
LeftHand  -0.590979 -4.22204 7.40966
RightShoulder  1.05999 0.768351 18.3646
RightArm  -15.8549 -6.92277 38.2862
RightForeArm  106.325 78.5949 113.96
RightHand  -0.131417 8.69698 -1.46731
LeftUpLeg  -0.0318532 1.74388 3.68707
LeftLeg  -4.84824 27.5212 -2.46862
LeftFoot  2.359 0.522421 -4.46755
LeftToes  4.78049e-008 1.46235e-008 1.34219e-009
220
root  -2.27674 41.0282 0.0367209 179.125 -79.8928 -175.662
RightUpLeg  -2.41387 0.386849 -0.341988
RightLeg  -6.30528 -11.7736 2.22426
RightFoot  5.58222 -0.377876 2.79606
RightToes  -3.1126e-008 1.75238e-005 3.56266e-009
Spine  11.741 -0.583232 -5.90779
Spine1  -17.9004 -1.05699 7.00909
HEad  -4.46611 -7.20923 2.72964
LeftShoulder1  0.579147 0.869037 -15.115
LeftArm  -32.9589 -41.6776 -46.5292
LeftForeArm  49.3836 -73.1984 -33.0597
LeftHand  -0.564996 -4.21017 7.10719
RightShoulder  1.12806 1.00828 18.5644
RightArm  -13.708 -11.4456 38.7677
RightForeArm  108.497 78.4114 116.037
RightHand  -0.172522 8.71876 -1.80314
LeftUpLeg  -0.0481918 1.7555 3.73762
LeftLeg  -4.87851 27.0742 -2.4567
LeftFoot  2.32267 0.547169 -4.68458
LeftToes  4.78049e-008 1.46235e-008 1.34219e-009
221
root  -2.35008 41.0307 0.0155933 178.861 -80.5332 -175.333
RightUpLeg  -2.2667 0.340238 -0.341636
RightLeg  -6.3705 -12.3442 2.30954
RightFoot  5.44833 -0.358726 2.68264
RightToes  -3.1126e-008 1.75238e-005 3.56266e-009
Spine  11.6772 -0.729932 -6.01726
Spine1  -18.1872 -1.18803 7.20855
HEad  -4.17784 -7.77139 2.88182
LeftShoulder1  0.498559 1.19868 -14.735
LeftArm  -33.6554 -43.0346 -47.1721
LeftForeArm  51.3278 -74.0846 -35.3462
LeftHand  -0.593732 -4.31162 7.38302
RightShoulder  1.12086 0.928743 18.8781
RightArm  -11.468 -16.013 38.9794
RightForeArm  110.413 78.2408 117.804
RightHand  -0.125215 8.41038 -1.43362
LeftUpLeg  -0.0986998 1.72242 3.75656
LeftLeg  -4.86078 26.4622 -2.38715
LeftFoot  2.33013 0.540831 -4.60605
LeftToes  4.78049e-008 1.46235e-008 1.34219e-009
222
root  -2.42394 41.0343 -0.00247947 178.899 -81.0572 -175.461
RightUpLeg  -2.04493 0.167128 -0.433178
RightLeg  -6.24739 -12.6209 2.35894
RightFoot  5.23203 -0.33888 2.57203
RightToes  -3.1126e-008 1.75238e-005 3.56266e-009
Spine  11.6353 -0.727392 -6.35298
Spine1  -18.2726 -1.21063 7.77225
HEad  -4.19365 -7.85682 3.00336
LeftShoulder1  0.4487 1.43635 -14.8105
LeftArm  -34.2866 -43.7245 -47.2673
LeftForeArm  52.4417 -74.6966 -37.2501
LeftHand  -0.563174 -3.98803 7.24107
RightShoulder  1.02814 0.571264 18.8196
RightArm  -9.80107 -20.3819 39.6577
RightForeArm  112.002 78.1846 118.666
RightHand  -0.0896524 8.33591 -1.13818
LeftUpLeg  0.188155 1.63366 3.68111
LeftLeg  -5.19427 26.047 -2.46273
LeftFoot  2.47608 0.52605 -4.4444
LeftToes  4.78049e-008 1.46235e-008 1.34219e-009
223
root  -2.47995 41.0362 -0.0113209 178.647 -81.3336 -175.238
RightUpLeg  -1.99369 0.200258 -0.394908
RightLeg  -6.04395 -12.9026 2.28091
RightFoot  5.09479 -0.329412 2.52183
RightToes  -3.1126e-008 1.75238e-005 3.56266e-009
Spine  11.2318 -0.642819 -6.90904
Spine1  -17.8718 -1.19158 8.76998
HEad  -4.42986 -7.71177 2.20831
LeftShoulder1  0.456983 1.43545 -15.2394
LeftArm  -35.0167 -43.5929 -46.7129
LeftForeArm  54.2339 -75.1879 -38.6995
LeftHand  -0.578418 -4.25495 7.23776
RightShoulder  0.924963 0.188776 18.6451
RightArm  -8.76801 -22.6377 40.585
RightForeArm  109.815 78.5355 115.647
RightHand  -0.0847387 8.3409 -1.09574
LeftUpLeg  0.272238 1.60942 3.68624
LeftLeg  -5.19184 25.7916 -2.40811
LeftFoot  2.42406 0.530943 -4.54795
LeftToes  4.78049e-008 1.46235e-008 1.34219e-009
224
root  -2.55188 41.0364 -0.0148834 178.088 -81.6106 -174.83
RightUpLeg  -1.68878 0.155329 -0.368431
RightLeg  -6.0286 -13.0965 2.2998
RightFoot  4.96294 -0.314321 2.43122
RightToes  -3.1126e-008 1.75238e-005 3.56266e-009
Spine  10.6671 -0.780026 -7.17425
Spine1  -17.1047 -1.38577 9.31364
HEad  -4.70453 -7.51409 1.86905
LeftShoulder1  0.424652 1.58053 -15.2199
LeftArm  -35.1425 -42.8805 -45.9885
LeftForeArm  54.756 -75.4584 -39.7161
LeftHand  -0.603388 -4.5052 7.36093
RightShoulder  0.925947 0.152471 18.9435
RightArm  -8.4198 -23.9949 40.9712
RightForeArm  109.432 78.5089 115.69
RightHand  -0.109854 8.40272 -1.30432
LeftUpLeg  0.521945 1.58637 3.68644
LeftLeg  -5.18876 25.5285 -2.30965
LeftFoot  2.32858 0.532687 -4.59597
LeftToes  4.78049e-008 1.46235e-008 1.34219e-009
